<?xml version="1.0" encoding="utf-8"?>
<!-- Generator: Adobe Illustrator 25.4.1, SVG Export Plug-In . SVG Version: 6.00 Build 0)  -->
<svg version="1.1" id="Calque_1" xmlns="http://www.w3.org/2000/svg" xmlns:xlink="http://www.w3.org/1999/xlink" x="0px" y="0px"
	 viewBox="0 0 105 105" style="enable-background:new 0 0 105 105;" xml:space="preserve">
<style type="text/css">
	.st0{fill:#FFFFFF;}
	.st1{fill:#0059B5;}
	.st2{fill:#183040;}
</style>
<path class="st0" d="M52.5,103.1c-27.9,0-50.6-22.7-50.6-50.6c0-27.9,22.7-50.6,50.6-50.6c27.9,0,50.6,22.7,50.6,50.6c0,0,0,0,0,0
	C103.1,80.4,80.4,103.1,52.5,103.1L52.5,103.1z"/>
<g id="logo" transform="translate(-432.752 -57.531)">
	<path id="Tracé_542" class="st1" d="M485.3,57.5c-29,0-52.5,23.5-52.5,52.5s23.5,52.5,52.5,52.5c29,0,52.5-23.5,52.5-52.5l0,0
		C537.7,81,514.2,57.6,485.3,57.5z M485.3,160.6c-27.9,0-50.6-22.7-50.6-50.6c0-27.9,22.7-50.6,50.6-50.6
		c27.9,0,50.6,22.7,50.6,50.6c0,0,0,0,0,0C535.8,138,513.2,160.6,485.3,160.6L485.3,160.6z"/>
	<g id="Groupe_173" transform="translate(446.952 89.087)">
		<g id="Groupe_171" transform="translate(17.678)">
			<path id="Tracé_543" class="st2" d="M6.3,17.4h10.3v10.9H23v-2.4c5.7,3.9,13.4,3.2,18.2-1.7l-4.5-4.5c-3,3.2-8.1,3.2-11.2,0.2
				c-3.2-3-3.2-8.1-0.2-11.2c3-3.2,8.1-3.2,11.2-0.2c0.1,0.1,0.1,0.1,0.2,0.2l4.4-4.4C36.2-0.7,28.6-1.4,23,2.5V0.2h-6.3V11H6.3V0.2
				H0v28.1h6.3V17.4z"/>
			<path id="Tracé_544" class="st1" d="M31,10c-2.2,0-4,1.8-4,4c0,2.2,1.8,4,4,4c2.2,0,4-1.8,4-4C34.9,11.8,33.2,10,31,10z
				 M31,15.6c-0.9,0-1.6-0.7-1.6-1.6s0.7-1.6,1.6-1.6s1.6,0.7,1.6,1.6c0,0,0,0,0,0C32.5,14.9,31.8,15.6,31,15.6z"/>
		</g>
		<g id="Groupe_172" transform="translate(0 33.545)">
			<path id="Tracé_545" class="st1" d="M24.2,4.3h1.8V3.7h-1.8V0.7h2.2V0.1h-2.9v8.1h3V7.7h-2.2L24.2,4.3z"/>
			<path id="Tracé_546" class="st1" d="M20.1,4.1C20.5,4,20.8,3.8,21,3.4c0.2-0.4,0.3-0.8,0.3-1.3c0-0.6-0.1-1.1-0.5-1.5
				c-0.4-0.4-1-0.6-1.6-0.5h-1.8v8.1h0.8v-4h1.3l1.2,4h0.7L20.1,4.1z M19.2,3.7h-1v-3h1.1c0.4,0,0.8,0.1,1,0.4
				c0.2,0.3,0.3,0.7,0.3,1.1c0,0.4-0.1,0.8-0.3,1.1C20,3.6,19.6,3.7,19.2,3.7L19.2,3.7z"/>
			<path id="Tracé_547" class="st1" d="M37.6,0.1h-1.8l-1.6,8.1h1.6L36,6.4h1.3l0.3,1.8h1.5L37.6,0.1z M36.2,5.4l0.5-3.3l0.5,3.3
				H36.2z"/>
			<path id="Tracé_548" class="st1" d="M54.6,0.1h-1.4l1.5,8.1h1.7L58,0.1h-1.5l-0.9,5.6L54.6,0.1z"/>
			<path id="Tracé_549" class="st1" d="M13.3,8.2l1.8-8.1h-0.7l-1.4,6.7l-1.5-6.7h-0.7l1.9,8.1L13.3,8.2z"/>
			<path id="Tracé_550" class="st1" d="M8.2,0.1H7.4L5.7,8.2h0.7l0.4-2.2h1.9l0.4,2.2h0.8L8.2,0.1z M6.9,5.5l0.9-4.4l0.9,4.4H6.9z"
				/>
			<path id="Tracé_551" class="st1" d="M4.1,8.2V0.1H3.3v3.6H0.8V0.1H0v8.1h0.8v-4h2.6v4H4.1z"/>
			<path id="Tracé_552" class="st1" d="M68.9,4.3l-1.8-4.2h-1.2v8.1h1.4V3.7l1.8,4.5h1.1V0.1h-1.4L68.9,4.3z"/>
			<path id="Tracé_553" class="st1" d="M62.4,0.1h-1.8l-1.6,8.1h1.6l0.3-1.8h1.3l0.3,1.8h1.5L62.4,0.1z M61,5.4l0.5-3.3l0.5,3.3H61
				z"/>
			<path id="Tracé_554" class="st1" d="M76.2,0.7c-1.1-0.9-2.6-0.9-3.7,0c-0.4,0.6-0.6,1.3-0.6,2v3c-0.1,0.7,0.1,1.4,0.6,2
				c1.1,0.9,2.6,0.9,3.7,0c0.4-0.6,0.6-1.3,0.6-2v-3C76.8,1.9,76.6,1.2,76.2,0.7z M75.1,6.1c0,0.3,0,0.5-0.1,0.8
				c-0.2,0.3-0.7,0.4-1,0.1c-0.1,0-0.1-0.1-0.1-0.1c-0.1-0.3-0.2-0.5-0.1-0.8V2.2c0-0.3,0-0.5,0.1-0.8c0.2-0.3,0.7-0.4,1-0.1
				c0,0,0.1,0.1,0.1,0.1C75,1.7,75.1,2,75.1,2.2L75.1,6.1z"/>
			<path id="Tracé_555" class="st1" d="M32.7,5.2h-1.6V6c0,0.3,0,0.6-0.1,0.8c-0.1,0.2-0.3,0.3-0.5,0.3c-0.2,0-0.4-0.1-0.6-0.3
				c-0.1-0.3-0.2-0.6-0.1-0.9V2.3c0-0.3,0-0.6,0.1-0.9c0.1-0.2,0.3-0.3,0.6-0.3c0.2,0,0.3,0,0.4,0.1C31,1.4,31,1.6,31,1.7
				c0,0.2,0,0.4,0,0.6V3h1.6V2.4c0-0.6-0.1-1.2-0.5-1.7c-1.1-0.8-2.6-0.8-3.6,0.1C28.2,1.3,28,2,28,2.7v2.9c0,0.7,0.1,1.4,0.5,2
				c0.5,0.5,1.1,0.8,1.8,0.7c0.7,0.1,1.3-0.2,1.8-0.6c0.4-0.5,0.6-1.2,0.5-1.8L32.7,5.2z"/>
			<path id="Tracé_556" class="st1" d="M50.6,0.1h-1.8l-1.6,8.1h1.6l0.3-1.8h1.3l0.3,1.8h1.5L50.6,0.1z M49.2,5.4l0.5-3.3l0.5,3.3
				H49.2z"/>
			<path id="Tracé_557" class="st1" d="M44.6,4.3c0.3-0.1,0.6-0.4,0.8-0.7c0.2-0.4,0.2-0.8,0.2-1.3c0.1-0.6-0.2-1.3-0.7-1.7
				c-0.6-0.4-1.3-0.5-2-0.5h-2.1v8.1h1.6V4.5h0.6L44,8.2h1.7L44.6,4.3z M43.8,3.3c-0.2,0.2-0.5,0.3-0.8,0.3h-0.5V1.2h0.6
				c0.3,0,0.6,0.1,0.8,0.3C44,1.8,44.1,2.1,44,2.4C44.1,2.7,44,3,43.8,3.3L43.8,3.3z"/>
		</g>
	</g>
</g>
</svg>
