<svg xmlns="http://www.w3.org/2000/svg" width="224.163" height="86.041" viewBox="0 0 224.163 86.041"><g transform="translate(-94.508 -578.37)"><g transform="translate(94.508 578.37)"><ellipse cx="40" cy="41.5" rx="40" ry="41.5" transform="translate(3 0.486)" fill="#fff"/><g transform="translate(98.867 25.748)"><path d="M151.978,593.337h2.08v9.7h6.887v-9.7H163v21.878h-2.054V604.572h-6.887v10.642h-2.08Z" transform="translate(-151.978 -593.337)" fill="#162e46"/><path d="M165.469,593.337h2.159l4.647,21.878h-2.027l-1.079-5.861h-5.214l-1.108,5.861h-2Zm3.429,14.532-2.322-11.8-2.322,11.8Z" transform="translate(-145.589 -593.337)" fill="#162e46"/><path d="M168.652,593.337h1.97l4.134,18.124,3.89-18.124h1.944l-4.943,21.878h-1.865Z" transform="translate(-139.967 -593.337)" fill="#162e46"/><path d="M177.993,593.337h4.941q2.947,0,4.187,1.418a6.113,6.113,0,0,1,1.244,4.146,7.645,7.645,0,0,1-.676,3.43,3.185,3.185,0,0,1-2.35,1.7l3.35,11.182h-2l-3.214-10.75h-3.429v10.75h-2.054Zm4.834,9.615a3.352,3.352,0,0,0,2.754-.974,4.872,4.872,0,0,0,.784-3.078,5.021,5.021,0,0,0-.743-3.079,3.324,3.324,0,0,0-2.74-.946h-2.835v8.077Z" transform="translate(-133.239 -593.337)" fill="#162e46"/><path d="M186.942,593.337h7.914v1.593h-5.834v8.211h4.753v1.512h-4.753v9.022h5.889v1.54h-7.969Z" transform="translate(-126.792 -593.337)" fill="#162e46"/></g><g transform="translate(98.3 50.662)"><path d="M153.107,628.387a8.687,8.687,0,0,1-1.459-5.417v-7.831a8.773,8.773,0,0,1,1.445-5.471q1.442-1.85,4.956-1.849,3.35,0,4.74,1.634a7.03,7.03,0,0,1,1.392,4.684v1.837h-4.321v-2.027a10.263,10.263,0,0,0-.1-1.566,1.733,1.733,0,0,0-.485-.986,1.637,1.637,0,0,0-1.2-.392,1.528,1.528,0,0,0-1.566.784,5.831,5.831,0,0,0-.351,2.295v9.94a5.007,5.007,0,0,0,.406,2.295,1.554,1.554,0,0,0,1.51.757,1.406,1.406,0,0,0,1.461-.771,6.18,6.18,0,0,0,.323-2.281v-2.133h4.321V623.7a7.554,7.554,0,0,1-1.378,4.85q-1.375,1.714-4.753,1.713Q154.563,630.262,153.107,628.387Z" transform="translate(-151.648 -607.819)" fill="#162e46"/><path d="M165.058,607.976H170l4.217,21.877h-4.106l-.81-4.808h-3.458L165,629.853h-4.187Zm3.807,14.315-1.323-8.8-1.3,8.8Z" transform="translate(-145.044 -607.706)" fill="#162e46"/><path d="M170.833,607.976h5.674a9.029,9.029,0,0,1,5.321,1.3q1.781,1.3,1.782,4.483a8.419,8.419,0,0,1-.6,3.444,3.963,3.963,0,0,1-2.107,1.985l3.026,10.669h-4.564l-2.486-9.912h-1.621v9.912h-4.43Zm5.755,9.317a2.716,2.716,0,0,0,2.2-.769,3.773,3.773,0,0,0,.635-2.417,3.992,3.992,0,0,0-.566-2.378,2.424,2.424,0,0,0-2.054-.757h-1.54v6.321Z" transform="translate(-137.828 -607.706)" fill="#162e46"/><path d="M184.524,607.976h4.944l4.213,21.877h-4.1l-.81-4.808h-3.458l-.836,4.808h-4.187Zm3.811,14.315-1.325-8.8-1.3,8.8Z" transform="translate(-131.02 -607.706)" fill="#162e46"/><path d="M189.219,607.976h3.862l2.593,15.125,2.431-15.125h4.024l-4.16,21.877h-4.592Z" transform="translate(-124.584 -607.706)" fill="#162e46"/><path d="M202.093,607.976h4.944l4.213,21.877h-4.106l-.81-4.808h-3.458l-.836,4.808h-4.186Zm3.809,14.315-1.325-8.8-1.3,8.8Z" transform="translate(-118.364 -607.706)" fill="#162e46"/><path d="M207.854,607.976h3.107l4.862,11.37v-11.37h3.7v21.877h-3l-4.863-12.1v12.1h-3.807Z" transform="translate(-111.161 -607.706)" fill="#162e46"/><path d="M218.792,628.441a8.316,8.316,0,0,1-1.486-5.362v-8.156a8.142,8.142,0,0,1,1.486-5.321q1.484-1.783,4.968-1.782,3.458,0,4.958,1.8a8.122,8.122,0,0,1,1.5,5.307v8.184a8.237,8.237,0,0,1-1.5,5.335q-1.5,1.822-4.958,1.822Q220.274,630.262,218.792,628.441Zm6.494-2.135a4.727,4.727,0,0,0,.392-2.119V613.842a4.552,4.552,0,0,0-.392-2.094,1.938,1.938,0,0,0-3.052,0,4.552,4.552,0,0,0-.392,2.094v10.344a4.877,4.877,0,0,0,.378,2.133,1.92,1.92,0,0,0,3.066-.014Z" transform="translate(-104.352 -607.819)" fill="#162e46"/></g><path d="M137.528,664.411a43.02,43.02,0,1,1,43.02-43.022A43.07,43.07,0,0,1,137.528,664.411Zm0-83.238a40.218,40.218,0,1,0,40.218,40.216A40.262,40.262,0,0,0,137.528,581.172Z" transform="translate(-94.508 -578.37)" fill="#0059b5"/><g transform="translate(39.138 70.964)"><rect width="7.766" height="1.682" fill="#004b99"/></g></g><g transform="translate(113.249 602.4)"><path d="M129.367,609.055a4.788,4.788,0,1,1,4.788-4.788A4.794,4.794,0,0,1,129.367,609.055Zm0-6.773a1.985,1.985,0,1,0,1.985,1.985A1.987,1.987,0,0,0,129.367,602.282Z" transform="translate(-91.588 -587.193)" fill="#0059b5"/><path d="M155.637,621.728l-5.447-5.447a9.673,9.673,0,1,1-.055-13.492l5.386-5.386a17.27,17.27,0,0,0-22.063-1.983v-2.875h-7.74V605.8H113.142V592.544H105.4v34.248h7.74V613.538h12.577v13.255h7.74v-2.961a17.259,17.259,0,0,0,22.179-2.1Z" transform="translate(-105.402 -592.338)" fill="#162e46"/></g></g></svg>