<?xml version="1.0" encoding="utf-8"?>
<!-- Generator: Adobe Illustrator 25.4.1, SVG Export Plug-In . SVG Version: 6.00 Build 0)  -->
<svg version="1.1" id="Calque_1" xmlns="http://www.w3.org/2000/svg" xmlns:xlink="http://www.w3.org/1999/xlink" x="0px" y="0px"
	 viewBox="0 0 259.3 130.1" style="enable-background:new 0 0 259.3 130.1;" xml:space="preserve">
<style type="text/css">
	.st0{fill:#FFFFFF;}
	.st1{enable-background:new    ;}
</style>
<g transform="translate(0)">
	<g transform="translate(114.36 29.783)">
		<path class="st0" d="M0,0h2.4v11.2h8V0h2.4v25.3h-2.4V13h-8v12.3H0V0z"/>
		<path class="st0" d="M23,0h2.5l5.4,25.3h-2.3l-1.2-6.8h-6L20,25.3h-2.3L23,0z M27,16.8L24.3,3.2l-2.7,13.7H27z"/>
		<path class="st0" d="M33.2,0h2.3l4.8,21l4.5-21H47l-5.7,25.3h-2.2L33.2,0z"/>
		<path class="st0" d="M51.8,0h5.7c2.3,0,3.9,0.5,4.8,1.6c1,1.4,1.6,3.1,1.4,4.8c0,1.4-0.2,2.7-0.8,4c-0.5,1.1-1.5,1.8-2.7,2
			l3.9,12.9h-2.3l-3.7-12.4h-4v12.4h-2.4L51.8,0z M57.4,11.1c1.2,0.1,2.4-0.3,3.2-1.1c0.7-1.1,1-2.3,0.9-3.6
			c0.1-1.2-0.2-2.5-0.9-3.6c-0.8-0.8-2-1.2-3.2-1.1h-3.3v9.3L57.4,11.1z"/>
		<path class="st0" d="M69.6,0h9.2v1.8H72v9.5h5.5v1.7H72v10.4h6.8v1.8h-9.2V0z"/>
	</g>
	<g transform="translate(113.703 58.601)">
		<path class="st0" d="M1.7,23.8c-1.2-1.8-1.8-4-1.7-6.3V8.5c0-2.8,0.6-4.9,1.7-6.3S4.7,0,7.4,0c2.6,0,4.4,0.6,5.5,1.9
			c1.2,1.6,1.7,3.5,1.6,5.4v2.1h-5V7.1c0-0.6,0-1.2-0.1-1.8C9.3,4.8,9.1,4.4,8.8,4.1C8.4,3.8,7.9,3.6,7.4,3.7C6.7,3.6,6,3.9,5.6,4.6
			C5.3,5.4,5.2,6.3,5.2,7.2v11.5c-0.1,0.9,0.1,1.8,0.5,2.7c0.4,0.6,1,1,1.7,0.9c0.7,0.1,1.4-0.3,1.7-0.9c0.3-0.8,0.4-1.7,0.4-2.6
			v-2.5h5v2.1c0.1,2-0.4,4-1.6,5.6c-1.1,1.3-2.9,2-5.5,2C4.7,26,2.8,25.2,1.7,23.8z"/>
		<path class="st0" d="M23.1,0.3h5.7l4.9,25.3H29l-0.9-5.6h-4l-1,5.6h-4.8L23.1,0.3z M27.6,16.9L26,6.7l-1.5,10.2H27.6z"/>
		<path class="st0" d="M38.2,0.3h6.6c2.7,0,4.8,0.5,6.2,1.5C52.3,2.8,53,4.5,53,7c0.1,1.4-0.2,2.7-0.7,4c-0.5,1-1.4,1.9-2.4,2.3
			l3.5,12.3H48l-2.9-11.5h-1.9v11.5h-5.1L38.2,0.3z M44.8,11.1c0.9,0.1,1.9-0.2,2.5-0.9c0.6-0.8,0.8-1.8,0.7-2.8
			c0.1-1-0.2-1.9-0.7-2.8c-0.6-0.7-1.5-1-2.4-0.9h-1.8v7.3L44.8,11.1z"/>
		<path class="st0" d="M61.9,0.3h5.7l4.9,25.3h-4.8l-0.9-5.6h-4l-1,5.6H57L61.9,0.3z M66.3,16.9L64.8,6.7l-1.5,10.2H66.3z"/>
		<path class="st0" d="M74.8,0.3h4.5l3,17.5L85,0.3h4.6l-4.8,25.3h-5.3L74.8,0.3z"/>
		<path class="st0" d="M96.8,0.3h5.7l4.9,25.3h-4.7l-0.9-5.6h-4l-1,5.6h-4.8L96.8,0.3z M101.3,16.9L99.7,6.7l-1.5,10.2H101.3z"/>
		<path class="st0" d="M111.8,0.3h3.6l5.6,13.2V0.3h4.3v25.3h-3.5l-5.6-14v14h-4.4L111.8,0.3z"/>
		<path class="st0" d="M132.4,23.9c-1.1-1.4-1.7-3.5-1.7-6.2V8.2c0-2.7,0.6-4.8,1.7-6.2c1.1-1.4,3.1-2.1,5.7-2.1
			c2.7,0,4.6,0.7,5.7,2.1s1.7,3.4,1.7,6.1v9.5c0,2.7-0.6,4.8-1.7,6.2s-3.1,2.1-5.7,2.1C135.4,26,133.5,25.3,132.4,23.9z M139.9,21.4
			c0.3-0.8,0.5-1.6,0.5-2.5V7c0-0.8-0.1-1.7-0.5-2.4c-0.8-1-2.2-1.1-3.1-0.4c-0.1,0.1-0.3,0.2-0.4,0.4c-0.3,0.8-0.5,1.6-0.5,2.4v12
			c0,0.8,0.1,1.7,0.4,2.5c0.7,1,2.1,1.2,3.1,0.4C139.6,21.7,139.8,21.5,139.9,21.4L139.9,21.4z"/>
	</g>
	<path class="st0" d="M49.8,99.5C22.3,99.5,0,77.2,0,49.8C0,22.3,22.3,0,49.8,0c27.5,0,49.8,22.3,49.8,49.8
		C99.5,77.2,77.2,99.5,49.8,99.5z M49.8,3.2C24.1,3.2,3.2,24.1,3.2,49.8c0,25.7,20.8,46.5,46.5,46.5s46.5-20.8,46.5-46.5
		c0,0,0,0,0,0C96.3,24.1,75.4,3.3,49.8,3.2z"/>
	<g transform="translate(45.27 82.083)">
		<rect x="0" y="0" class="st0" width="9" height="1.9"/>
	</g>
	<path class="st0" d="M65.4,53.1c-3.1,0-5.5-2.5-5.5-5.5c0-3.1,2.5-5.5,5.5-5.5c3.1,0,5.5,2.5,5.5,5.5
		C70.9,50.6,68.4,53.1,65.4,53.1z M65.4,45.2c-1.3,0-2.3,1-2.3,2.3s1,2.3,2.3,2.3c1.3,0,2.3-1,2.3-2.3l0,0
		C67.7,46.3,66.6,45.2,65.4,45.2L65.4,45.2L65.4,45.2z"/>
	<path class="st0" d="M79.8,61.8l-6.3-6.3c-4.3,4.4-11.4,4.6-15.8,0.3c-4.4-4.3-4.6-11.4-0.3-15.8c4.3-4.4,11.4-4.6,15.8-0.3
		c0.1,0.1,0.1,0.1,0.2,0.2l6.2-6.2c-6.8-6.8-17.6-7.8-25.5-2.3V28h-9v15.3H30.6V28h-9v39.6h9V52.3h14.5v15.3h9v-3.4
		C62.1,69.8,73,68.7,79.8,61.8L79.8,61.8z"/>
	<g class="st1">
		<path class="st0" d="M53.6,118.8l-0.4,3.4h2.3v0.9H53l-0.4,3h-0.9l0.4-3h-3.3l-0.4,3h-0.9l0.4-3h-2.3v-0.9h2.4l0.4-3.4h-2.3v-0.9
			h2.4l0.4-3h0.9l-0.4,3h3.3l0.4-3H54l-0.4,3h2.3v0.9H53.6z M52.7,118.8h-3.3l-0.4,3.4h3.3L52.7,118.8z"/>
	</g>
	<g class="st1">
		<path class="st0" d="M64.9,118.2c0.6,0.4,1.1,0.9,1.5,1.5s0.5,1.4,0.5,2.2c0,0.8-0.2,1.6-0.5,2.2s-0.9,1.2-1.5,1.5
			s-1.4,0.5-2.2,0.5c-0.7,0-1.3-0.1-1.8-0.4c-0.5-0.3-1-0.7-1.4-1.2v4.7h-1.1v-11.5h1.1v1.7c0.3-0.6,0.8-1,1.4-1.3
			c0.6-0.3,1.2-0.4,1.9-0.4C63.6,117.6,64.3,117.8,64.9,118.2z M64.3,124.8c0.5-0.3,0.9-0.7,1.1-1.2c0.3-0.5,0.4-1.1,0.4-1.7
			s-0.1-1.2-0.4-1.7s-0.6-0.9-1.1-1.2s-1-0.4-1.6-0.4c-0.6,0-1.1,0.1-1.6,0.4s-0.8,0.7-1.1,1.2s-0.4,1.1-0.4,1.7s0.1,1.2,0.4,1.7
			c0.3,0.5,0.6,0.9,1.1,1.2c0.5,0.3,1,0.4,1.6,0.4C63.3,125.2,63.8,125,64.3,124.8z"/>
	</g>
	<g class="st1">
		<path class="st0" d="M75.2,118.4c0.6,0.5,0.9,1.4,0.9,2.4v5.2H75v-1.3c-0.3,0.4-0.6,0.8-1.1,1c-0.5,0.2-1.1,0.4-1.8,0.4
			c-0.9,0-1.7-0.2-2.2-0.7s-0.8-1-0.8-1.8c0-0.7,0.3-1.3,0.8-1.7c0.5-0.4,1.3-0.7,2.5-0.7h2.7v-0.5c0-0.7-0.2-1.3-0.6-1.7
			s-1-0.6-1.8-0.6c-0.5,0-1,0.1-1.5,0.3c-0.5,0.2-0.9,0.4-1.3,0.7l-0.5-0.8c0.4-0.4,0.9-0.6,1.5-0.8c0.6-0.2,1.2-0.3,1.9-0.3
			C73.8,117.6,74.6,117.9,75.2,118.4z M73.9,124.8c0.5-0.3,0.8-0.7,1-1.3v-1.4h-2.6c-1.4,0-2.2,0.5-2.2,1.5c0,0.5,0.2,0.9,0.6,1.2
			c0.4,0.3,0.9,0.4,1.6,0.4C72.9,125.3,73.5,125.1,73.9,124.8z"/>
	</g>
	<g class="st1">
		<path class="st0" d="M81.9,118.1c0.5-0.3,1.2-0.4,2-0.4v1.1l-0.3,0c-0.9,0-1.6,0.3-2.1,0.8c-0.5,0.5-0.8,1.3-0.8,2.3v4.3h-1.1
			v-8.4h1.1v1.6C81,118.8,81.4,118.3,81.9,118.1z"/>
	</g>
	<g class="st1">
		<path class="st0" d="M91.2,125.6c-0.2,0.2-0.5,0.3-0.8,0.4c-0.3,0.1-0.6,0.2-1,0.2c-0.8,0-1.4-0.2-1.8-0.6c-0.4-0.4-0.6-1-0.6-1.8
			v-5.1h-1.5v-1H87v-1.8h1.1v1.8h2.6v1h-2.6v5c0,0.5,0.1,0.9,0.4,1.1c0.3,0.3,0.6,0.4,1.1,0.4c0.2,0,0.5,0,0.7-0.1s0.4-0.2,0.6-0.3
			L91.2,125.6z"/>
	</g>
	<g class="st1">
		<path class="st0" d="M100.8,122.2h-7c0.1,0.9,0.4,1.6,1,2.1c0.6,0.5,1.4,0.8,2.3,0.8c0.5,0,1-0.1,1.4-0.3c0.4-0.2,0.8-0.5,1.1-0.8
			l0.6,0.7c-0.4,0.4-0.8,0.8-1.4,1c-0.6,0.2-1.2,0.4-1.8,0.4c-0.9,0-1.6-0.2-2.3-0.6s-1.2-0.9-1.6-1.5s-0.6-1.4-0.6-2.2
			s0.2-1.6,0.5-2.2s0.8-1.2,1.5-1.5c0.6-0.4,1.3-0.5,2.1-0.5c0.8,0,1.5,0.2,2.1,0.5c0.6,0.4,1.1,0.9,1.5,1.5s0.5,1.4,0.5,2.2
			L100.8,122.2z M94.7,119.4c-0.5,0.5-0.9,1.2-0.9,2h6c-0.1-0.8-0.4-1.5-0.9-2c-0.5-0.5-1.2-0.8-2.1-0.8
			C95.9,118.6,95.2,118.9,94.7,119.4z"/>
		<path class="st0" d="M110.4,118.5c0.6,0.6,0.9,1.5,0.9,2.7v4.9h-1.1v-4.8c0-0.9-0.2-1.5-0.7-2c-0.4-0.5-1.1-0.7-1.9-0.7
			c-0.9,0-1.6,0.3-2.2,0.8c-0.5,0.5-0.8,1.3-0.8,2.2v4.4h-1.1v-8.4h1.1v1.6c0.3-0.5,0.7-0.9,1.3-1.2c0.5-0.3,1.2-0.4,1.9-0.4
			C108.9,117.6,109.8,117.9,110.4,118.5z"/>
		<path class="st0" d="M120.4,118.4c0.6,0.5,0.9,1.4,0.9,2.4v5.2h-1.1v-1.3c-0.3,0.4-0.6,0.8-1.1,1c-0.5,0.2-1.1,0.4-1.8,0.4
			c-0.9,0-1.7-0.2-2.2-0.7s-0.8-1-0.8-1.8c0-0.7,0.3-1.3,0.8-1.7c0.5-0.4,1.3-0.7,2.5-0.7h2.7v-0.5c0-0.7-0.2-1.3-0.6-1.7
			s-1-0.6-1.8-0.6c-0.5,0-1,0.1-1.5,0.3c-0.5,0.2-0.9,0.4-1.3,0.7l-0.5-0.8c0.4-0.4,0.9-0.6,1.5-0.8c0.6-0.2,1.2-0.3,1.9-0.3
			C118.9,117.6,119.8,117.9,120.4,118.4z M119.1,124.8c0.5-0.3,0.8-0.7,1-1.3v-1.4h-2.6c-1.4,0-2.2,0.5-2.2,1.5
			c0,0.5,0.2,0.9,0.6,1.2c0.4,0.3,0.9,0.4,1.6,0.4C118.1,125.3,118.6,125.1,119.1,124.8z"/>
	</g>
	<g class="st1">
		<path class="st0" d="M124.8,115.6c-0.2-0.2-0.2-0.4-0.2-0.6c0-0.2,0.1-0.4,0.2-0.6c0.2-0.2,0.4-0.2,0.6-0.2c0.2,0,0.4,0.1,0.6,0.2
			c0.2,0.2,0.2,0.3,0.2,0.6c0,0.2-0.1,0.4-0.2,0.6s-0.4,0.2-0.6,0.2C125.2,115.8,125,115.8,124.8,115.6z M124.8,117.7h1.1v8.4h-1.1
			V117.7z"/>
	</g>
	<g class="st1">
		<path class="st0" d="M131.9,118.1c0.5-0.3,1.2-0.4,2-0.4v1.1l-0.3,0c-0.9,0-1.6,0.3-2.1,0.8c-0.5,0.5-0.8,1.3-0.8,2.3v4.3h-1.1
			v-8.4h1.1v1.6C130.9,118.8,131.3,118.3,131.9,118.1z"/>
	</g>
	<g class="st1">
		<path class="st0" d="M143.6,122.2h-7c0.1,0.9,0.4,1.6,1,2.1c0.6,0.5,1.4,0.8,2.3,0.8c0.5,0,1-0.1,1.4-0.3s0.8-0.5,1.1-0.8l0.6,0.7
			c-0.4,0.4-0.8,0.8-1.4,1c-0.6,0.2-1.2,0.4-1.8,0.4c-0.9,0-1.6-0.2-2.3-0.6c-0.7-0.4-1.2-0.9-1.6-1.5c-0.4-0.7-0.6-1.4-0.6-2.2
			s0.2-1.6,0.5-2.2s0.8-1.2,1.5-1.5c0.6-0.4,1.3-0.5,2.1-0.5c0.8,0,1.5,0.2,2.1,0.5c0.6,0.4,1.1,0.9,1.5,1.5
			c0.4,0.6,0.5,1.4,0.5,2.2L143.6,122.2z M137.5,119.4c-0.5,0.5-0.9,1.2-0.9,2h6c-0.1-0.8-0.4-1.5-0.9-2c-0.5-0.5-1.2-0.8-2.1-0.8
			C138.7,118.6,138,118.9,137.5,119.4z"/>
		<path class="st0" d="M154.1,114.2v11.9H153v-1.7c-0.3,0.6-0.8,1-1.4,1.3c-0.6,0.3-1.2,0.4-1.9,0.4c-0.8,0-1.5-0.2-2.1-0.5
			c-0.6-0.4-1.1-0.9-1.5-1.5c-0.4-0.7-0.5-1.4-0.5-2.2s0.2-1.6,0.5-2.2c0.4-0.7,0.9-1.2,1.5-1.5c0.6-0.4,1.4-0.5,2.1-0.5
			c0.7,0,1.3,0.1,1.8,0.4c0.5,0.3,1,0.7,1.4,1.2v-5.1H154.1z M151.5,124.8c0.5-0.3,0.8-0.7,1.1-1.2c0.3-0.5,0.4-1.1,0.4-1.7
			s-0.1-1.2-0.4-1.7c-0.3-0.5-0.6-0.9-1.1-1.2c-0.5-0.3-1-0.4-1.6-0.4c-0.6,0-1.1,0.1-1.6,0.4c-0.5,0.3-0.8,0.7-1.1,1.2
			c-0.3,0.5-0.4,1.1-0.4,1.7s0.1,1.2,0.4,1.7c0.3,0.5,0.6,0.9,1.1,1.2c0.5,0.3,1,0.4,1.6,0.4C150.4,125.2,151,125,151.5,124.8z"/>
	</g>
	<g class="st1">
		<path class="st0" d="M165.1,122.2h-7c0.1,0.9,0.4,1.6,1,2.1c0.6,0.5,1.4,0.8,2.3,0.8c0.5,0,1-0.1,1.4-0.3s0.8-0.5,1.1-0.8l0.6,0.7
			c-0.4,0.4-0.8,0.8-1.4,1c-0.6,0.2-1.2,0.4-1.8,0.4c-0.9,0-1.6-0.2-2.3-0.6c-0.7-0.4-1.2-0.9-1.6-1.5c-0.4-0.7-0.6-1.4-0.6-2.2
			s0.2-1.6,0.5-2.2s0.8-1.2,1.5-1.5c0.6-0.4,1.3-0.5,2.1-0.5c0.8,0,1.5,0.2,2.1,0.5c0.6,0.4,1.1,0.9,1.5,1.5
			c0.4,0.6,0.5,1.4,0.5,2.2L165.1,122.2z M159,119.4c-0.5,0.5-0.9,1.2-0.9,2h6c-0.1-0.8-0.4-1.5-0.9-2c-0.5-0.5-1.2-0.8-2.1-0.8
			C160.2,118.6,159.5,118.9,159,119.4z"/>
	</g>
	<g class="st1">
		<path class="st0" d="M174.8,117.7l-3.7,8.4h-1.2l-3.7-8.4h1.2l3.2,7.2l3.2-7.2H174.8z"/>
	</g>
	<g class="st1">
		<path class="st0" d="M177.9,125.6c-0.7-0.4-1.2-0.9-1.5-1.5c-0.4-0.7-0.6-1.4-0.6-2.2s0.2-1.6,0.6-2.2c0.4-0.7,0.9-1.2,1.5-1.5
			c0.7-0.4,1.4-0.5,2.2-0.5s1.5,0.2,2.2,0.5c0.7,0.4,1.2,0.9,1.5,1.5c0.4,0.7,0.6,1.4,0.6,2.2s-0.2,1.6-0.6,2.2
			c-0.4,0.7-0.9,1.2-1.5,1.5s-1.4,0.6-2.2,0.6S178.5,126,177.9,125.6z M181.7,124.8c0.5-0.3,0.8-0.7,1.1-1.2
			c0.3-0.5,0.4-1.1,0.4-1.7s-0.1-1.2-0.4-1.7c-0.3-0.5-0.6-0.9-1.1-1.2c-0.5-0.3-1-0.4-1.6-0.4s-1.1,0.1-1.6,0.4
			c-0.5,0.3-0.8,0.7-1.1,1.2c-0.3,0.5-0.4,1.1-0.4,1.7s0.1,1.2,0.4,1.7c0.3,0.5,0.6,0.9,1.1,1.2c0.5,0.3,1,0.4,1.6,0.4
			S181.2,125,181.7,124.8z"/>
	</g>
	<g class="st1">
		<path class="st0" d="M187.5,125.9c-0.6-0.2-1.1-0.4-1.5-0.7l0.5-0.9c0.4,0.3,0.8,0.5,1.3,0.7s1.1,0.3,1.7,0.3
			c0.8,0,1.3-0.1,1.7-0.4c0.4-0.2,0.6-0.6,0.6-1c0-0.3-0.1-0.6-0.3-0.7c-0.2-0.2-0.5-0.3-0.8-0.4s-0.7-0.2-1.2-0.3
			c-0.7-0.1-1.2-0.3-1.6-0.4c-0.4-0.1-0.8-0.4-1.1-0.7c-0.3-0.3-0.4-0.8-0.4-1.3c0-0.7,0.3-1.3,0.9-1.7c0.6-0.4,1.4-0.7,2.4-0.7
			c0.5,0,1.1,0.1,1.6,0.2c0.5,0.1,1,0.3,1.3,0.6l-0.5,0.9c-0.7-0.5-1.5-0.7-2.5-0.7c-0.7,0-1.3,0.1-1.6,0.4c-0.4,0.3-0.6,0.6-0.6,1
			c0,0.3,0.1,0.6,0.3,0.8c0.2,0.2,0.5,0.3,0.8,0.4s0.7,0.2,1.3,0.3c0.7,0.1,1.2,0.3,1.6,0.4s0.8,0.3,1,0.7s0.4,0.7,0.4,1.3
			c0,0.7-0.3,1.3-0.9,1.8c-0.6,0.4-1.5,0.6-2.6,0.6C188.7,126.2,188.1,126.1,187.5,125.9z"/>
		<path class="st0" d="M195.4,114.2h1.1v11.9h-1.1V114.2z"/>
		<path class="st0" d="M201.5,125.6c-0.7-0.4-1.2-0.9-1.5-1.5c-0.4-0.7-0.6-1.4-0.6-2.2s0.2-1.6,0.6-2.2c0.4-0.7,0.9-1.2,1.5-1.5
			c0.7-0.4,1.4-0.5,2.2-0.5s1.5,0.2,2.2,0.5c0.7,0.4,1.2,0.9,1.5,1.5s0.6,1.4,0.6,2.2s-0.2,1.6-0.6,2.2s-0.9,1.2-1.5,1.5
			c-0.7,0.4-1.4,0.6-2.2,0.6S202.1,126,201.5,125.6z M205.3,124.8c0.5-0.3,0.8-0.7,1.1-1.2c0.3-0.5,0.4-1.1,0.4-1.7
			s-0.1-1.2-0.4-1.7s-0.6-0.9-1.1-1.2c-0.5-0.3-1-0.4-1.6-0.4c-0.6,0-1.1,0.1-1.6,0.4c-0.5,0.3-0.8,0.7-1.1,1.2
			c-0.3,0.5-0.4,1.1-0.4,1.7s0.1,1.2,0.4,1.7c0.3,0.5,0.6,0.9,1.1,1.2c0.5,0.3,1,0.4,1.6,0.4C204.2,125.2,204.8,125,205.3,124.8z"/>
		<path class="st0" d="M210.7,115.6c-0.2-0.2-0.2-0.4-0.2-0.6c0-0.2,0.1-0.4,0.2-0.6c0.2-0.2,0.4-0.2,0.6-0.2c0.2,0,0.4,0.1,0.6,0.2
			c0.2,0.2,0.2,0.3,0.2,0.6c0,0.2-0.1,0.4-0.2,0.6s-0.4,0.2-0.6,0.2C211,115.8,210.9,115.8,210.7,115.6z M210.7,117.7h1.1v8.4h-1.1
			V117.7z"/>
		<path class="st0" d="M215.8,125.9c-0.6-0.2-1.1-0.4-1.5-0.7l0.5-0.9c0.4,0.3,0.8,0.5,1.3,0.7s1.1,0.3,1.7,0.3
			c0.8,0,1.3-0.1,1.7-0.4c0.4-0.2,0.6-0.6,0.6-1c0-0.3-0.1-0.6-0.3-0.7c-0.2-0.2-0.5-0.3-0.8-0.4c-0.3-0.1-0.7-0.2-1.2-0.3
			c-0.7-0.1-1.2-0.3-1.6-0.4c-0.4-0.1-0.8-0.4-1.1-0.7s-0.4-0.8-0.4-1.3c0-0.7,0.3-1.3,0.9-1.7c0.6-0.4,1.4-0.7,2.4-0.7
			c0.5,0,1.1,0.1,1.6,0.2c0.5,0.1,1,0.3,1.3,0.6l-0.5,0.9c-0.7-0.5-1.5-0.7-2.5-0.7c-0.7,0-1.3,0.1-1.6,0.4s-0.6,0.6-0.6,1
			c0,0.3,0.1,0.6,0.3,0.8c0.2,0.2,0.5,0.3,0.8,0.4s0.7,0.2,1.3,0.3c0.7,0.1,1.2,0.3,1.6,0.4s0.8,0.3,1,0.7s0.4,0.7,0.4,1.3
			c0,0.7-0.3,1.3-0.9,1.8c-0.6,0.4-1.5,0.6-2.6,0.6C217,126.2,216.4,126.1,215.8,125.9z"/>
		<path class="st0" d="M223.7,115.6c-0.2-0.2-0.2-0.4-0.2-0.6c0-0.2,0.1-0.4,0.2-0.6s0.4-0.2,0.6-0.2s0.4,0.1,0.6,0.2
			c0.2,0.2,0.2,0.3,0.2,0.6c0,0.2-0.1,0.4-0.2,0.6s-0.4,0.2-0.6,0.2S223.9,115.8,223.7,115.6z M223.8,117.7h1.1v8.4h-1.1V117.7z"/>
	</g>
	<g class="st1">
		<path class="st0" d="M230.8,118.1c0.5-0.3,1.2-0.4,2-0.4v1.1l-0.3,0c-0.9,0-1.6,0.3-2.1,0.8s-0.8,1.3-0.8,2.3v4.3h-1.1v-8.4h1.1
			v1.6C229.9,118.8,230.3,118.3,230.8,118.1z"/>
	</g>
	<g class="st1">
		<path class="st0" d="M235.7,125.9c-0.6-0.2-1.1-0.4-1.5-0.7l0.5-0.9c0.4,0.3,0.8,0.5,1.3,0.7s1.1,0.3,1.7,0.3
			c0.8,0,1.3-0.1,1.7-0.4c0.4-0.2,0.6-0.6,0.6-1c0-0.3-0.1-0.6-0.3-0.7c-0.2-0.2-0.5-0.3-0.8-0.4c-0.3-0.1-0.7-0.2-1.2-0.3
			c-0.7-0.1-1.2-0.3-1.6-0.4c-0.4-0.1-0.8-0.4-1.1-0.7s-0.4-0.8-0.4-1.3c0-0.7,0.3-1.3,0.9-1.7c0.6-0.4,1.4-0.7,2.4-0.7
			c0.5,0,1.1,0.1,1.6,0.2c0.5,0.1,1,0.3,1.3,0.6l-0.5,0.9c-0.7-0.5-1.5-0.7-2.5-0.7c-0.7,0-1.3,0.1-1.6,0.4s-0.6,0.6-0.6,1
			c0,0.3,0.1,0.6,0.3,0.8c0.2,0.2,0.5,0.3,0.8,0.4s0.7,0.2,1.3,0.3c0.7,0.1,1.2,0.3,1.6,0.4s0.8,0.3,1,0.7s0.4,0.7,0.4,1.3
			c0,0.7-0.3,1.3-0.9,1.8c-0.6,0.4-1.5,0.6-2.6,0.6C236.9,126.2,236.3,126.1,235.7,125.9z"/>
	</g>
</g>
</svg>
