<svg xmlns="http://www.w3.org/2000/svg" width="33.392" height="32.922" viewBox="0 0 33.392 32.922">
  <path id="Tracé_207" data-name="Tracé 207" d="M190.692-1144.436a4.5,4.5,0,0,1-.411.766.738.738,0,0,0-.02.771c5.108,9.095-1.885,20.713-12.678,20.6-12.193.061-18.874-14.162-10.887-23.088l10.635,22.285a.722.722,0,0,0,.652.408.716.716,0,0,0,.668-.444c1.233-3.036,9.083-20.639,10.269-23.32a.651.651,0,0,0-.088-.678,10.1,10.1,0,0,0-1.638-1.51,18.392,18.392,0,0,0-14.036-2.825.263.263,0,0,0-.041.5,6.5,6.5,0,0,1,1.378.757,1.12,1.12,0,0,0,.854.186,13.4,13.4,0,0,1,12.1,3.978l-7.176,16-7.674-17.493a4.314,4.314,0,0,0-.826-1.241.382.382,0,0,0-.032-.03,3.514,3.514,0,0,0-2.557-.846h0a2.44,2.44,0,0,0-1.111.356,16.034,16.034,0,0,0-3.913,3.526c.006-.008.012-.014.018-.021-8.786,10.551-1.014,26.908,12.966,26.836,13.489.064,21.092-15.114,14-25.541a.26.26,0,0,0-.454.059" transform="translate(-160.46 1151.876)" fill="#ff4e00"/>
</svg>
