<svg xmlns="http://www.w3.org/2000/svg" width="139" height="32.922" viewBox="0 0 139 32.922">
  <g id="logo-S" transform="translate(-419 -24.539)">
    <g id="Groupe_117" data-name="Groupe 117" transform="translate(267.123 1176.415)">
      <g id="Groupe_116" data-name="Groupe 116" transform="translate(151.877 -1151.876)">
        <path id="Tracé_207" data-name="Tracé 207" d="M190.692-1144.436a4.5,4.5,0,0,1-.411.766.738.738,0,0,0-.02.771c5.108,9.095-1.885,20.713-12.678,20.6-12.193.061-18.874-14.162-10.887-23.088l10.635,22.285a.722.722,0,0,0,.652.408.716.716,0,0,0,.668-.444c1.233-3.036,9.083-20.639,10.269-23.32a.651.651,0,0,0-.088-.678,10.1,10.1,0,0,0-1.638-1.51,18.392,18.392,0,0,0-14.036-2.825.263.263,0,0,0-.041.5,6.5,6.5,0,0,1,1.378.757,1.12,1.12,0,0,0,.854.186,13.4,13.4,0,0,1,12.1,3.978l-7.176,16-7.674-17.493a4.314,4.314,0,0,0-.826-1.241.382.382,0,0,0-.032-.03,3.514,3.514,0,0,0-2.557-.846h0a2.44,2.44,0,0,0-1.111.356,16.034,16.034,0,0,0-3.913,3.526c.006-.008.012-.014.018-.021-8.786,10.551-1.014,26.908,12.966,26.836,13.489.064,21.092-15.114,14-25.541a.26.26,0,0,0-.454.059" transform="translate(-160.46 1151.876)" fill="#fff"/>
      </g>
    </g>
    <g id="Groupe_297" data-name="Groupe 297" transform="translate(355.323 -342.78)">
      <g id="Groupe_295" data-name="Groupe 295" transform="translate(111.677 377.18)">
        <path id="Tracé_38244" data-name="Tracé 38244" d="M111.677,377.89h2.395l1.791,6.405q.31,1.091.545,2.065t.564,2.083h.078q.331-1.109.575-2.083t.555-2.065l1.772-6.405h2.3l-3.933,12.733h-2.687Z" transform="translate(-111.677 -377.656)" fill="#ff4e00"/>
        <path id="Tracé_38245" data-name="Tracé 38245" d="M166.133,388.414a2.789,2.789,0,0,0,1.353-.331,3,3,0,0,0,1.042-.944,4.694,4.694,0,0,0,.662-1.479,7.479,7.479,0,0,0,.233-1.937,5.567,5.567,0,0,0-.9-3.359,2.984,2.984,0,0,0-4.808,0,5.558,5.558,0,0,0-.9,3.359,7.421,7.421,0,0,0,.234,1.937,4.548,4.548,0,0,0,.672,1.479,3.111,3.111,0,0,0,1.042.944,2.772,2.772,0,0,0,1.362.331m0,1.967a5.558,5.558,0,0,1-2.278-.458,5.019,5.019,0,0,1-1.782-1.323,6.1,6.1,0,0,1-1.158-2.093,8.772,8.772,0,0,1-.409-2.784,8.624,8.624,0,0,1,.409-2.756,5.8,5.8,0,0,1,1.158-2.054,5.074,5.074,0,0,1,1.782-1.284,6.009,6.009,0,0,1,4.555,0,4.989,4.989,0,0,1,1.773,1.284,5.922,5.922,0,0,1,1.148,2.054,8.652,8.652,0,0,1,.409,2.756,8.8,8.8,0,0,1-.409,2.784,6.228,6.228,0,0,1-1.148,2.093,4.938,4.938,0,0,1-1.773,1.323,5.559,5.559,0,0,1-2.278.458" transform="translate(-144.444 -377.18)" fill="#fff"/>
      </g>
      <path id="Tracé_38246" data-name="Tracé 38246" d="M217.09,377.89h2.259v10.825h5.276v1.908H217.09Z" transform="translate(-70.738 -0.477)" fill="#ff4e00"/>
      <g id="Groupe_296" data-name="Groupe 296" transform="translate(159.26 377.414)">
        <path id="Tracé_38247" data-name="Tracé 38247" d="M263.4,385.406l-.448-1.558q-.291-1.012-.584-2.084t-.564-2.122h-.078q-.274,1.071-.545,2.131t-.584,2.074l-.448,1.558Zm.506,1.771h-4.264l-.992,3.446h-2.317L260.5,377.89h2.648l4.146,12.733H264.9Z" transform="translate(-256.332 -377.89)" fill="#ff4e00"/>
        <path id="Tracé_38248" data-name="Tracé 38248" d="M309.067,377.89h2.317l3.952,7.165,1.325,2.706h.078q-.1-.993-.2-2.132t-.1-2.209v-5.53h2.142v12.733h-2.317l-3.953-7.165-1.324-2.706h-.078q.1,1.012.2,2.123t.1,2.181v5.568h-2.142Z" transform="translate(-291.72 -377.89)" fill="#ff4e00"/>
      </g>
      <path id="Tracé_38249" data-name="Tracé 38249" d="M359.142,377.89V379.8h3.679v10.824h2.259V379.8h3.661V377.89Z" transform="translate(-166.064 -0.476)" fill="#ff4e00"/>
    </g>
  </g>
</svg>
