<svg xmlns="http://www.w3.org/2000/svg" width="164.646" height="144.224" viewBox="0 0 164.646 144.224">
  <g id="logo-XL" transform="translate(-106 -36.014)">
    <g id="Groupe_141" data-name="Groupe 141" transform="translate(0 -60.768)">
      <g id="Groupe_131" data-name="Groupe 131" transform="translate(56 7.123)">
        <path id="Tracé_38133" data-name="Tracé 38133" d="M111.677,377.89h4.333l3.241,11.589q.562,1.975.987,3.736t1.021,3.768h.141q.6-2.006,1.04-3.768t1-3.736l3.205-11.589h4.157l-7.116,23.038h-4.861Z" transform="translate(-61.677 -167.467)" fill="#ff4e00"/>
        <path id="Tracé_38134" data-name="Tracé 38134" d="M170.687,397.505a5.045,5.045,0,0,0,2.448-.6,5.423,5.423,0,0,0,1.885-1.708,8.492,8.492,0,0,0,1.2-2.676,13.531,13.531,0,0,0,.422-3.5,10.073,10.073,0,0,0-1.62-6.077,5.4,5.4,0,0,0-8.7,0,10.057,10.057,0,0,0-1.622,6.077,13.426,13.426,0,0,0,.424,3.5,8.226,8.226,0,0,0,1.215,2.676,5.628,5.628,0,0,0,1.885,1.708,5.016,5.016,0,0,0,2.465.6m0,3.558a10.057,10.057,0,0,1-4.121-.828,9.082,9.082,0,0,1-3.224-2.394,11.038,11.038,0,0,1-2.095-3.787,15.871,15.871,0,0,1-.74-5.037,15.6,15.6,0,0,1,.74-4.986,10.5,10.5,0,0,1,2.095-3.717,9.182,9.182,0,0,1,3.224-2.323,10.874,10.874,0,0,1,8.242,0,9.03,9.03,0,0,1,3.207,2.323,10.715,10.715,0,0,1,2.078,3.717,15.653,15.653,0,0,1,.74,4.986,15.922,15.922,0,0,1-.74,5.037,11.269,11.269,0,0,1-2.078,3.787,8.935,8.935,0,0,1-3.207,2.394,10.058,10.058,0,0,1-4.121.828" transform="translate(-81.445 -167.18)" fill="#fff"/>
        <path id="Tracé_38135" data-name="Tracé 38135" d="M217.09,377.89h4.087v19.586h9.545v3.451H217.09Z" transform="translate(-104.353 -167.468)" fill="#ff4e00"/>
        <path id="Tracé_38136" data-name="Tracé 38136" d="M269.119,391.488l-.811-2.818q-.527-1.832-1.057-3.77t-1.021-3.839h-.141q-.5,1.938-.987,3.856t-1.057,3.753l-.811,2.818Zm.916,3.2h-7.716l-1.8,6.235h-4.192l7.538-23.038h4.791l7.5,23.038h-4.331Z" transform="translate(-120.24 -167.467)" fill="#ff4e00"/>
        <path id="Tracé_38137" data-name="Tracé 38137" d="M309.067,377.89h4.192l7.151,12.964,2.4,4.9h.141q-.178-1.8-.353-3.858t-.176-4V377.89h3.875v23.038H322.1l-7.153-12.964-2.395-4.9h-.141q.178,1.831.353,3.841t.176,3.945v10.074h-3.875Z" transform="translate(-141.59 -167.467)" fill="#ff4e00"/>
        <path id="Tracé_38138" data-name="Tracé 38138" d="M359.142,377.89v3.453H365.8v19.585h4.087V381.343h6.624V377.89Z" transform="translate(-161.863 -167.467)" fill="#ff4e00"/>
      </g>
    </g>
    <g id="Groupe_247" data-name="Groupe 247" transform="translate(22.823 -46.676)">
      <g id="Groupe_246" data-name="Groupe 246" transform="translate(115.562 82.69)">
        <path id="Tracé_38202" data-name="Tracé 38202" d="M210.751,104.856a13.45,13.45,0,0,1-1.209,2.281,2.223,2.223,0,0,0-.059,2.3c15.027,27.1-5.546,61.707-37.294,61.385-35.868.182-55.521-42.193-32.026-68.784l31.286,66.392a2.121,2.121,0,0,0,3.883-.106c3.628-9.046,26.721-61.488,30.209-69.474a1.96,1.96,0,0,0-.259-2.021,29.885,29.885,0,0,0-4.817-4.5c-7.128-5.578-24.714-12.472-41.29-8.418a.788.788,0,0,0-.121,1.487,19.052,19.052,0,0,1,4.055,2.255,3.267,3.267,0,0,0,2.512.554c13.86-2.3,27.482,2.622,35.6,11.852l-21.109,47.678L157.532,95.62a12.869,12.869,0,0,0-2.43-3.7c-.02-.021-.051-.051-.095-.089a10.256,10.256,0,0,0-7.523-2.52h0a7.115,7.115,0,0,0-3.267,1.061A47.386,47.386,0,0,0,132.7,100.883c.017-.023.036-.042.054-.064-25.848,31.435-2.984,80.165,38.141,79.951,39.681.19,62.047-45.026,41.187-76.09a.76.76,0,0,0-1.335.177" transform="translate(-121.817 -82.69)" fill="#fff"/>
      </g>
    </g>
  </g>
</svg>
