<svg xmlns="http://www.w3.org/2000/svg" width="259.288" height="130.101" viewBox="0 0 259.288 130.101"><g transform="translate(0)"><g transform="translate(114.36 29.783)"><path d="M322.33,593.337h2.406v11.215H332.7V593.337h2.376v25.306H332.7v-12.31h-7.966v12.31H322.33Z" transform="translate(-322.33 -593.337)" fill="#fff"/><path d="M336.545,593.337h2.5l5.375,25.306h-2.342l-1.248-6.78h-6.031l-1.281,6.78H331.2Zm3.966,16.809-2.688-13.653-2.684,13.653Z" transform="translate(-313.55 -593.337)" fill="#fff"/><path d="M339,593.337h2.28l4.782,20.964,4.5-20.964h2.251L347.1,618.643h-2.157Z" transform="translate(-305.825 -593.337)" fill="#fff"/><path d="M348.345,593.337h5.715q3.409,0,4.843,1.64a7.071,7.071,0,0,1,1.439,4.8,8.815,8.815,0,0,1-.784,3.968,3.677,3.677,0,0,1-2.716,1.968l3.874,12.934H358.4l-3.717-12.435h-3.968v12.435h-2.374Zm5.592,11.122a3.878,3.878,0,0,0,3.186-1.126,5.649,5.649,0,0,0,.907-3.56,5.807,5.807,0,0,0-.86-3.562,3.847,3.847,0,0,0-3.17-1.094h-3.281v9.343Z" transform="translate(-296.578 -593.337)" fill="#fff"/><path d="M357.294,593.337h9.152v1.843H359.7v9.5h5.5v1.749h-5.5v10.435h6.809v1.781h-9.215Z" transform="translate(-287.719 -593.337)" fill="#fff"/></g><g transform="translate(113.703 58.601)"><path d="M323.687,631.61A10.048,10.048,0,0,1,322,625.344v-9.058q0-4.188,1.672-6.328t5.733-2.139q3.874,0,5.482,1.89a8.132,8.132,0,0,1,1.608,5.419v2.125h-5v-2.344a11.868,11.868,0,0,0-.111-1.811,2.016,2.016,0,0,0-.561-1.14,1.894,1.894,0,0,0-1.391-.454,1.767,1.767,0,0,0-1.811.907,6.744,6.744,0,0,0-.406,2.655v11.5a5.792,5.792,0,0,0,.47,2.655,1.8,1.8,0,0,0,1.747.876,1.627,1.627,0,0,0,1.689-.891,7.19,7.19,0,0,0,.374-2.639V624.1h5v2.091a8.749,8.749,0,0,1-1.592,5.61q-1.594,1.982-5.5,1.982Q325.372,633.779,323.687,631.61Z" transform="translate(-322 -607.819)" fill="#fff"/><path d="M336.073,607.976h5.717l4.875,25.306h-4.748l-.937-5.562h-4l-.969,5.562h-4.843Zm4.406,16.558-1.53-10.184-1.5,10.184Z" transform="translate(-312.925 -607.664)" fill="#fff"/><path d="M341.185,607.976h6.563q4.092,0,6.155,1.5t2.062,5.186a9.737,9.737,0,0,1-.689,3.984,4.584,4.584,0,0,1-2.438,2.3l3.5,12.341h-5.281l-2.873-11.466h-1.875v11.466h-5.124Zm6.656,10.777a3.144,3.144,0,0,0,2.545-.89,4.364,4.364,0,0,0,.734-2.8,4.632,4.632,0,0,0-.655-2.75,2.807,2.807,0,0,0-2.376-.875h-1.781v7.311Z" transform="translate(-303.009 -607.664)" fill="#fff"/><path d="M355.54,607.976h5.719l4.873,25.306h-4.75l-.937-5.562h-4l-.969,5.562h-4.841Zm4.408,16.558-1.532-10.184-1.5,10.184Z" transform="translate(-293.652 -607.664)" fill="#fff"/><path d="M359.571,607.976h4.467l3,17.5,2.812-17.5H374.5l-4.812,25.306h-5.311Z" transform="translate(-284.808 -607.664)" fill="#fff"/><path d="M373.108,607.976h5.719l4.873,25.306h-4.748l-.937-5.562h-4l-.967,5.562H368.2Zm4.408,16.558-1.532-10.184-1.5,10.184Z" transform="translate(-276.262 -607.664)" fill="#fff"/><path d="M378.206,607.976H381.8l5.622,13.151V607.976h4.28v25.306h-3.466l-5.625-14v14h-4.4Z" transform="translate(-266.362 -607.664)" fill="#fff"/><path d="M389.378,631.672q-1.722-2.11-1.721-6.2v-9.434q0-4.092,1.721-6.155t5.747-2.062q4,0,5.733,2.078t1.733,6.139V625.5q0,4.062-1.733,6.171t-5.733,2.107Q391.093,633.779,389.378,631.672Zm7.512-2.469a5.5,5.5,0,0,0,.454-2.452V614.786a5.292,5.292,0,0,0-.454-2.422,2.242,2.242,0,0,0-3.53,0,5.266,5.266,0,0,0-.454,2.422v11.965a5.641,5.641,0,0,0,.438,2.467,2.221,2.221,0,0,0,3.546-.016Z" transform="translate(-257.006 -607.819)" fill="#fff"/></g><path d="M314.621,677.893a49.761,49.761,0,1,1,49.761-49.763A49.819,49.819,0,0,1,314.621,677.893Zm0-96.281a46.52,46.52,0,1,0,46.52,46.518A46.571,46.571,0,0,0,314.621,581.612Z" transform="translate(-264.86 -578.37)" fill="#fff"/><g transform="translate(45.27 82.083)"><rect width="8.982" height="1.945" fill="#fff"/></g><path d="M300.469,610.556a5.538,5.538,0,1,1,5.538-5.538A5.544,5.544,0,0,1,300.469,610.556Zm0-7.834a2.3,2.3,0,1,0,2.3,2.3A2.3,2.3,0,0,0,300.469,602.722Z" transform="translate(-235.093 -557.473)" fill="#fff"/><path d="M333.862,626.333l-6.3-6.3a11.189,11.189,0,1,1-.064-15.607l6.23-6.23a19.979,19.979,0,0,0-25.522-2.294v-3.325h-8.953v15.33H284.706v-15.33h-8.953v39.615h8.953V616.859h14.548v15.332h8.953v-3.425a19.966,19.966,0,0,0,25.656-2.434Z" transform="translate(-254.077 -564.543)" fill="#fff"/><text transform="translate(45.27 126.101)" fill="#fff" font-size="16" font-family="Montserrat-Regular, Montserrat"><tspan x="0" y="0" letter-spacing="0.029em">#</tspan><tspan y="0" letter-spacing="0.026em">p</tspan><tspan y="0" letter-spacing="0.03em">a</tspan><tspan y="0" letter-spacing="0.045em">r</tspan><tspan y="0" letter-spacing="0.011em">t</tspan><tspan y="0" letter-spacing="0.03em">ena</tspan><tspan y="0" letter-spacing="0.029em">i</tspan><tspan y="0" letter-spacing="0.017em">r</tspan><tspan y="0" letter-spacing="0.03em">ed</tspan><tspan y="0" letter-spacing="0.02em">e</tspan><tspan y="0" letter-spacing="0.015em">v</tspan><tspan y="0" letter-spacing="0.03em">o</tspan><tspan y="0" letter-spacing="0.029em">sloisi</tspan><tspan y="0" letter-spacing="0.026em">r</tspan><tspan y="0">s</tspan></text></g></svg>